<svg width="44" height="38" viewBox="0 0 44 38" fill="none" xmlns="http://www.w3.org/2000/svg">
<g clip-path="url(#clip0_7_64)">
<path d="M14.4153 12.7123C13.3434 12.7123 12.4756 11.9467 12.4756 10.9768C12.4756 10.007 13.3434 9.24136 14.4153 9.24136C15.4872 9.24136 16.3549 10.007 16.3549 10.9768C16.3549 11.5383 16.8142 11.9977 17.3757 11.9977C17.9372 11.9977 18.3967 11.5383 18.3967 10.9768C18.3967 9.24136 17.1206 7.76111 15.4361 7.35277V5.6173C15.4361 5.05583 14.9768 4.59644 14.4153 4.59644C13.8538 4.59644 13.3944 5.05583 13.3944 5.6173V7.35277C11.71 7.76111 10.4339 9.24136 10.4339 10.9768C10.4339 13.0696 12.2204 14.754 14.4153 14.754C15.4872 14.754 16.3549 15.5197 16.3549 16.4894C16.3549 17.4593 15.4872 18.225 14.4153 18.225C13.3434 18.225 12.4756 17.4593 12.4756 16.4894C12.4756 15.928 12.0162 15.4686 11.4548 15.4686C10.8933 15.4686 10.4339 15.928 10.4339 16.4894C10.4339 18.225 11.71 19.7052 13.3944 20.1135V21.849C13.3944 22.4105 13.8538 22.8698 14.4153 22.8698C14.9768 22.8698 15.4361 22.4105 15.4361 21.849V20.1135C17.1206 19.7052 18.3967 18.225 18.3967 16.4894C18.4476 14.3967 16.6611 12.7123 14.4153 12.7123Z" fill="#EA0029"/>
<path d="M41.416 13.9373H32.5856C32.0241 13.9373 31.5647 14.3966 31.5647 14.9581C31.5647 15.5196 32.0241 15.979 32.5856 15.979H38.8639L30.2376 24.6053L23.0915 17.4082C22.6832 16.9998 22.0196 16.9998 21.6623 17.4082L3.69517 35.3243C3.28683 35.7326 3.28683 36.3452 3.69517 36.7535C3.89934 36.9577 4.15456 37.0598 4.40978 37.0598C4.66499 37.0598 4.9202 36.9577 5.12438 36.7535L22.3259 19.6031L29.523 26.7491C29.7271 26.9532 29.9824 27.0553 30.2376 27.0553C30.4928 27.0553 30.748 26.9532 30.9522 26.7491L40.3951 17.3061V23.8396C40.3951 24.4011 40.8545 24.8605 41.416 24.8605C41.9775 24.8605 42.4369 24.4011 42.4369 23.8396V14.9581C42.4369 14.3966 41.9775 13.9373 41.416 13.9373Z" fill="#EA0029"/>
<path d="M11.2496 27.0548L12.9851 25.3193C7.21725 24.6047 2.7765 19.7045 2.7765 13.7836C2.7765 7.35214 7.98289 2.14574 14.4144 2.14574C20.8458 2.14574 26.0521 7.35214 26.0521 13.7325C26.0521 15.468 25.6438 17.1014 24.9802 18.5816L26.5116 20.1129C27.5324 18.2243 28.0939 16.0295 28.0939 13.7325C28.0939 6.17815 21.9687 0.0529785 14.4144 0.0529785C6.85995 0.0529785 0.785818 6.22919 0.785818 13.7325C0.785818 20.215 5.27761 25.6255 11.2496 27.0548Z" fill="#EA0029"/>
<path d="M23.2964 21.2356C21.8672 22.92 19.9276 24.1961 17.7327 24.8597L15.2316 27.3608C19.0088 27.1567 22.3776 25.3702 24.7256 22.6648L23.2964 21.2356Z" fill="#EA0029"/>
</g>
<defs>
<clipPath id="clip0_7_64">
<rect width="42.5577" height="37.0067" fill="white" transform="translate(0.785643 0.0529785)"/>
</clipPath>
</defs>
</svg>
