<svg width="22" height="17" viewBox="0 0 22 17" fill="none" xmlns="http://www.w3.org/2000/svg">
<g clip-path="url(#clip0_90_2094)">
<path d="M20.8027 6.44579C18.9783 4.44817 15.276 1.07886 10.9079 1.07886C6.53975 1.07886 2.83749 4.44817 1.013 6.44579C0.000874519 7.55114 0.000874519 9.26909 1.013 10.3744C2.82418 12.3721 6.52643 15.7281 10.9079 15.7281C15.2893 15.7281 18.9783 12.3721 20.8027 10.3744C21.8149 9.26909 21.8149 7.55114 20.8027 6.44579ZM19.3778 9.05601C17.7797 10.8272 14.5435 13.7837 10.9079 13.7837C7.27221 13.7837 4.04938 10.8139 2.43797 9.05601C2.10503 8.68313 2.10503 8.13711 2.43797 7.76422C4.04938 5.993 7.27221 3.03652 10.9079 3.03652C14.5435 3.03652 17.7664 5.993 19.3778 7.76422C19.6974 8.12379 19.6841 8.68313 19.3778 9.05601ZM10.9079 4.0087C8.49741 4.0087 6.55306 5.97968 6.55306 8.40346C6.55306 10.8272 8.49741 12.7982 10.9079 12.7982C13.3183 12.7982 15.2627 10.8272 15.2627 8.40346C15.2627 5.97968 13.3183 4.02201 10.9079 4.0087ZM10.9079 10.8539C9.57613 10.8539 8.4841 9.76184 8.4841 8.41678C8.4841 7.07171 9.57613 5.96636 10.9079 5.96636C12.2396 5.96636 13.3317 7.05839 13.3317 8.40346C13.3317 9.76184 12.2396 10.8539 10.9079 10.8539Z" fill="#838383"/>
</g>
<defs>
<clipPath id="clip0_90_2094">
<rect width="21.3079" height="15.981" fill="white" transform="translate(0.253906 0.879395)"/>
</clipPath>
</defs>
</svg>
