<svg width="43" height="48" viewBox="0 0 43 48" fill="none" xmlns="http://www.w3.org/2000/svg">
<g clip-path="url(#clip0_7_85)">
<path d="M22.1945 8.75033C18.6022 8.60065 15.1595 9.848 12.565 12.3427C9.97056 14.8373 8.52368 18.1803 8.52368 21.7725C8.52368 24.7163 9.47166 27.5103 11.3177 29.8553C12.9143 31.9009 14.012 33.8468 14.7104 35.8925L14.7604 36.0421V41.281C14.7604 41.9296 15.2593 42.5283 15.908 42.628C16.1574 45.5219 18.6022 47.817 21.5958 47.817C24.5894 47.817 27.0342 45.5219 27.2837 42.5782C27.9323 42.4784 28.4312 41.9296 28.4312 41.2311V36.0421L28.4811 35.8925C29.1796 33.8468 30.2773 31.9009 31.8739 29.9053C33.8197 27.4604 34.8176 24.367 34.6679 21.2736C34.3187 14.538 28.8803 9.04969 22.1945 8.75033ZM25.6871 36.5909V39.8839H17.5046V36.5909H25.6871ZM21.5958 45.0729C20.099 45.0729 18.9015 43.9752 18.6521 42.5782H24.5395C24.29 44.0251 23.0926 45.0729 21.5958 45.0729ZM29.6785 28.1589C28.1818 30.0549 27.0841 31.9009 26.2858 33.8468H16.9058C16.1075 31.9508 15.0099 30.0549 13.513 28.1589C12.0661 26.3129 11.3177 24.1176 11.3177 21.7725C11.3177 18.9286 12.4653 16.2843 14.5109 14.2885C16.5566 12.3427 19.2508 11.2949 22.1446 11.4446C27.4333 11.694 31.7242 16.0348 31.9737 21.2736C32.0236 23.8182 31.2252 26.2131 29.6785 28.1589Z" fill="#EA0029"/>
<path d="M21.5956 5.65655C22.344 5.65655 22.9427 5.05783 22.9427 4.30942V1.76485C22.9427 1.01645 22.344 0.417725 21.5956 0.417725C20.8471 0.417725 20.2484 1.01645 20.2484 1.76485V4.30942C20.2484 5.05783 20.8471 5.65655 21.5956 5.65655Z" fill="#EA0029"/>
<path d="M11.6672 7.35323C11.9166 7.80227 12.3656 8.05174 12.8646 8.05174C13.114 8.05174 13.3136 8.00185 13.5631 7.85217C14.2117 7.45302 14.4612 6.65472 14.062 6.0061L12.8147 3.81078C12.4155 3.16217 11.6173 2.91271 10.9686 3.31185C10.32 3.711 10.0706 4.50929 10.4696 5.15792L11.6672 7.35323Z" fill="#EA0029"/>
<path d="M7.12667 11.8436L4.93135 10.5963C4.28274 10.1971 3.43455 10.4466 3.08529 11.0952C2.68614 11.7438 2.93561 12.592 3.58423 12.9412L5.77955 14.1886C5.97912 14.2884 6.22859 14.3882 6.47806 14.3882C6.92709 14.3882 7.42604 14.1388 7.6755 13.6897C8.02476 13.091 7.77529 12.2428 7.12667 11.8436Z" fill="#EA0029"/>
<path d="M5.48028 21.7722C5.48028 21.0238 4.88156 20.425 4.13315 20.425H1.58858C0.840178 20.425 0.241455 21.0238 0.241455 21.7722C0.241455 22.5205 0.840178 23.1193 1.58858 23.1193H4.13315C4.88156 23.1692 5.48028 22.5205 5.48028 21.7722Z" fill="#EA0029"/>
<path d="M5.7793 29.3558L3.58398 30.6031C2.93536 31.0023 2.6859 31.8006 3.08505 32.4492C3.33452 32.8982 3.78356 33.1477 4.28249 33.1477C4.53196 33.1477 4.73154 33.0978 4.981 32.9481L7.17633 31.7008C7.82494 31.3016 8.0744 30.5034 7.67526 29.8547C7.2761 29.2061 6.42792 28.9567 5.7793 29.3558Z" fill="#EA0029"/>
<path d="M39.6072 30.6031L37.4119 29.3558C36.7633 28.9567 35.9151 29.2061 35.5659 29.8547C35.1667 30.5034 35.4162 31.3515 36.0649 31.7008L38.2602 32.9481C38.4597 33.0479 38.7092 33.1477 38.9586 33.1477C39.4077 33.1477 39.9066 32.8982 40.1561 32.4492C40.4555 31.8006 40.2559 31.0023 39.6072 30.6031Z" fill="#EA0029"/>
<path d="M41.6031 20.425H39.0585C38.3101 20.425 37.7114 21.0238 37.7114 21.7722C37.7114 22.5205 38.3101 23.1193 39.0585 23.1193H41.6031C42.3515 23.1193 42.9502 22.5205 42.9502 21.7722C42.9502 21.0238 42.3515 20.425 41.6031 20.425Z" fill="#EA0029"/>
<path d="M36.7135 14.3882C36.9629 14.3882 37.1625 14.3383 37.4119 14.1886L39.6072 12.9412C40.2559 12.5422 40.5054 11.7438 40.1062 11.0952C39.7071 10.4466 38.9088 10.1971 38.2602 10.5963L36.0649 11.8436C35.4162 12.2428 35.1667 13.0411 35.5659 13.6897C35.8153 14.1886 36.2644 14.3882 36.7135 14.3882Z" fill="#EA0029"/>
<path d="M29.6288 7.85217C29.8284 7.95195 30.0778 8.05174 30.3273 8.05174C30.7764 8.05174 31.2753 7.80227 31.5247 7.35323L32.772 5.15792C33.1712 4.50929 32.9218 3.66111 32.2731 3.31185C31.6245 2.91271 30.7764 3.16217 30.4271 3.81078L29.1798 6.0061C28.7806 6.60483 28.9801 7.45302 29.6288 7.85217Z" fill="#EA0029"/>
</g>
<defs>
<clipPath id="clip0_7_85">
<rect width="42.7519" height="47.3989" fill="white" transform="translate(0.241211 0.417969)"/>
</clipPath>
</defs>
</svg>
