<svg width="20" height="21" viewBox="0 0 20 21" fill="none" xmlns="http://www.w3.org/2000/svg">
<g clip-path="url(#clip0_90_2089)">
<path d="M17.4176 12.3315C17.7454 11.7852 17.9274 11.2026 17.9274 10.5107C17.9274 8.90845 16.5436 7.41544 14.7957 7.41544H13.4484C13.6304 6.94205 13.7761 6.39582 13.7761 5.70393C13.7761 3.04565 12.3923 1.88037 10.3167 1.88037C8.05896 1.88037 8.20462 5.33979 7.69482 5.8496C6.85727 6.68715 5.87407 8.2894 5.18219 8.87204H1.61352C0.958051 8.87204 0.448242 9.41827 0.448242 10.0373V18.7769C0.448242 19.4324 0.958051 19.9422 1.61352 19.9422H3.94408C4.45388 19.9422 4.92728 19.5781 5.03652 19.1046C6.67519 19.141 7.80406 20.5248 11.5184 20.5248C11.8097 20.5248 12.101 20.5248 12.3559 20.5248C15.1599 20.5248 16.398 19.1046 16.4344 17.0653C16.9442 16.41 17.1991 15.4996 17.0899 14.6256C17.454 13.9701 17.5633 13.169 17.4176 12.3315ZM15.1599 14.2978C15.6332 15.0625 15.1963 16.0822 14.6501 16.41C14.9414 18.1579 13.9946 18.7769 12.7201 18.7769H11.3363C8.75085 18.7769 7.03935 17.4296 5.10935 17.4296V10.62H5.47351C6.52954 10.62 7.94971 8.07091 8.93292 7.08771C9.95254 6.06809 9.6248 4.32017 10.3167 3.62829C12.0282 3.62829 12.0282 4.82998 12.0282 5.70393C12.0282 7.12412 11.0086 7.77959 11.0086 9.16336H14.7957C15.5605 9.16336 16.1431 9.85524 16.1795 10.5471C16.1795 11.2026 15.7061 11.8945 15.342 11.8945C15.8517 12.4407 15.961 13.5696 15.1599 14.2978ZM3.65276 17.6116C3.65276 18.1214 3.25219 18.4856 2.7788 18.4856C2.26899 18.4856 1.90484 18.1214 1.90484 17.6116C1.90484 17.1382 2.26899 16.7376 2.7788 16.7376C3.25219 16.7376 3.65276 17.1382 3.65276 17.6116Z" fill="#838383"/>
</g>
<defs>
<clipPath id="clip0_90_2089">
<rect width="18.6444" height="19.9762" fill="white" transform="translate(0.448242 0.881592)"/>
</clipPath>
</defs>
</svg>
