<svg width="61" height="62" viewBox="0 0 61 62" fill="none" xmlns="http://www.w3.org/2000/svg">
<path fill-rule="evenodd" clip-rule="evenodd" d="M20.4218 46.7032H14.3749V40.6562H10.3437C9.9876 40.6562 9.64494 40.5152 9.39634 40.2598C9.14103 40.0113 8.99994 39.6686 8.99994 39.3125C8.99994 38.9564 9.14103 38.6138 9.39634 38.3652C9.64494 38.1098 9.9876 37.9688 10.3437 37.9688H14.3749V32.5938H10.3437C9.9876 32.5938 9.64494 32.4527 9.39634 32.1973C9.14103 31.9488 8.99994 31.6061 8.99994 31.25C8.99994 30.8939 9.14103 30.5513 9.39634 30.3027C9.64494 30.0473 9.9876 29.9062 10.3437 29.9062H14.3749V24.5312H10.3437C9.9876 24.5312 9.64494 24.3902 9.39634 24.1348C9.14103 23.8863 8.99994 23.5436 8.99994 23.1875C8.99994 22.8314 9.14103 22.4888 9.39634 22.2402C9.64494 21.9848 9.9876 21.8438 10.3437 21.8438H14.3749V19.1025C14.3749 18.2291 14.7243 17.3892 15.3424 16.7644C15.9673 16.1463 16.8071 15.7969 17.6806 15.7969H20.4218V11.0938C20.4218 10.7377 20.5629 10.395 20.8182 10.1464C21.0669 9.89109 21.4094 9.75 21.7656 9.75C22.1217 9.75 22.4643 9.89109 22.7129 10.1464C22.9682 10.395 23.1093 10.7377 23.1093 11.0938V15.7969H29.1562V11.0938C29.1562 10.7377 29.2973 10.395 29.5526 10.1464C29.8012 9.89109 30.1439 9.75 30.4999 9.75C30.856 9.75 31.1987 9.89109 31.4473 10.1464C31.7026 10.395 31.8437 10.7377 31.8437 11.0938V15.7969H37.8906V11.0938C37.8906 10.7377 38.0317 10.395 38.2869 10.1464C38.5355 9.89109 38.8782 9.75 39.2343 9.75C39.5904 9.75 39.9331 9.89109 40.1817 10.1464C40.4369 10.395 40.5781 10.7377 40.5781 11.0938V15.7969H43.3194C44.1928 15.7969 45.0326 16.1463 45.6574 16.7644C46.2756 17.3892 46.6249 18.2291 46.6249 19.1025V21.8438H50.6562C51.0123 21.8438 51.3549 21.9848 51.6035 22.2402C51.8589 22.4888 51.9999 22.8314 51.9999 23.1875C51.9999 23.5436 51.8589 23.8863 51.6035 24.1348C51.3549 24.3902 51.0123 24.5312 50.6562 24.5312H46.6249V29.9062H50.6562C51.0123 29.9062 51.3549 30.0473 51.6035 30.3027C51.8589 30.5513 51.9999 30.8939 51.9999 31.25C51.9999 31.6061 51.8589 31.9488 51.6035 32.1973C51.3549 32.4527 51.0123 32.5938 50.6562 32.5938H46.6249V37.9688H50.6562C51.0123 37.9688 51.3549 38.1098 51.6035 38.3652C51.8589 38.6138 51.9999 38.9564 51.9999 39.3125C51.9999 39.6686 51.8589 40.0113 51.6035 40.2598C51.3549 40.5152 51.0123 40.6562 50.6562 40.6562H46.6249V46.7032H40.5781V51.4062C40.5781 51.7623 40.4369 52.105 40.1817 52.3536C39.9331 52.6089 39.5904 52.75 39.2343 52.75C38.8782 52.75 38.5355 52.6089 38.2869 52.3536C38.0317 52.105 37.8906 51.7623 37.8906 51.4062V46.7032H31.8437V51.4062C31.8437 51.7623 31.7026 52.105 31.4473 52.3536C31.1987 52.6089 30.856 52.75 30.4999 52.75C30.1439 52.75 29.8012 52.6089 29.5526 52.3536C29.2973 52.105 29.1562 51.7623 29.1562 51.4062V46.7032H23.1093V51.4062C23.1093 51.7623 22.9682 52.105 22.7129 52.3536C22.4643 52.6089 22.1217 52.75 21.7656 52.75C21.4094 52.75 21.0669 52.6089 20.8182 52.3536C20.5629 52.105 20.4218 51.7623 20.4218 51.4062V46.7032ZM24.4531 25.2032H36.5468V37.2968H24.4531V25.2032ZM24.1171 22.5157H36.8828C37.5076 22.5157 38.1055 22.7643 38.549 23.2009C38.9857 23.6443 39.2343 24.2423 39.2343 24.8672V39.9843H21.7656V24.8672C21.7656 24.2423 22.0142 23.6443 22.4509 23.2009C22.8943 22.7643 23.4923 22.5157 24.1171 22.5157ZM17.6806 18.4844H21.7656H30.4999H39.2343H43.3194C43.4806 18.4844 43.6419 18.5516 43.756 18.6658C43.8703 18.78 43.9374 18.9413 43.9374 19.1025V44.0157H39.2343H30.4999H21.7656H17.0624V19.1025C17.0624 18.9413 17.1296 18.78 17.2438 18.6658C17.3581 18.5516 17.5193 18.4844 17.6806 18.4844Z" fill="#EA0029"/>
</svg>
