<svg width="294" height="82" viewBox="0 0 294 82" fill="none" xmlns="http://www.w3.org/2000/svg">
<g clip-path="url(#clip0_28_124)">
<path d="M48.2266 8.46826H44.7798C43.4074 8.46826 42.2939 9.57261 42.2939 10.9336V36.2648C42.2939 37.6258 43.4074 38.7302 44.7798 38.7302H48.2314C49.6036 38.7302 50.7171 37.6258 50.7171 36.2648V10.9336C50.7125 9.57261 49.5991 8.46826 48.2266 8.46826Z" fill="#EA0029"/>
<path d="M35.8204 8.46826C33.6442 8.46826 31.819 9.76047 30.9364 11.6118L21.7788 30.9126C21.5615 31.3709 21.1318 32.1132 20.7714 32.1132C20.411 32.1132 19.9813 31.3709 19.7642 30.9126L10.5416 11.6118C9.65448 9.76047 7.8294 8.46826 5.65776 8.46826H0.330322L14.8664 36.3884C16.308 39.1287 19.2559 39.0737 20.7714 39.0737C22.8599 39.0737 25.3041 38.9591 26.6025 36.3884L41.1385 8.46826H35.8204Z" fill="#EA0029"/>
<path d="M196.461 3.8308C196.461 2.46984 195.348 1.36549 193.976 1.36549H190.524C189.152 1.36549 188.038 2.46984 188.038 3.8308V28.8551C188.038 32.6813 189.406 34.9082 191.855 36.5074C194.23 38.0471 196.965 38.7346 202.075 38.7346H204.843C206.215 38.7346 207.329 37.6302 207.329 36.2692V33.5977H205.24C203.729 33.5977 200.564 33.5382 198.688 32.2825C196.244 30.6833 196.457 27.8286 196.457 25.771V3.8308H196.461Z" fill="#EA0029"/>
<path d="M142.549 33.5932C141.038 33.5932 137.869 33.5336 135.998 32.278C133.553 30.6787 133.766 27.8241 133.766 25.7665V13.6095H141.93C143.303 13.6095 144.416 12.5052 144.416 11.1442V8.46813H133.77V3.8308C133.77 2.46984 132.657 1.36549 131.285 1.36549H127.833C126.461 1.36549 125.347 2.46984 125.347 3.8308V8.46813H107.785V3.8308C107.785 2.46984 106.671 1.36549 105.299 1.36549H101.847C100.475 1.36549 99.3616 2.46984 99.3616 3.8308V8.46813H94.1082V11.1442C94.1082 12.5052 95.2216 13.6095 96.594 13.6095H99.3663V28.8551C99.3663 32.6813 100.734 34.9082 103.178 36.5074C105.553 38.0471 108.289 38.7346 113.399 38.7346H116.166C117.539 38.7346 118.652 37.6302 118.652 36.2692V33.5977H116.564C115.053 33.5977 111.888 33.5382 110.017 32.2825C107.568 30.6833 107.785 27.8286 107.785 25.771V13.6095H125.347V28.8551C125.347 32.6813 126.715 34.9082 129.164 36.5074C131.539 38.0471 134.274 38.7346 139.384 38.7346H142.152C143.524 38.7346 144.638 37.6302 144.638 36.2692V33.5977H142.549V33.5932Z" fill="#EA0029"/>
<path d="M91.017 36.2696V33.5981H72.3778C69.2821 33.5981 65.7567 33.2544 64.6754 30.0009C64.389 29.0892 64.1717 27.1463 64.1717 25.831H86.3411C87.8518 25.831 89.2935 25.6018 90.4439 24.6854C92.0289 23.4299 92.246 21.6611 92.246 20.1169C92.246 16.2906 91.3081 12.5239 86.8445 10.2969C83.3192 8.52813 78.7125 8.35399 74.2491 8.35399C70.6497 8.35399 64.1717 8.35399 59.9995 11.2088C55.8272 14.0636 55.4668 18.2289 55.4668 23.8835C55.4668 27.8793 55.6839 32.0492 58.2021 34.9041C61.3671 38.4463 65.9738 38.7305 69.8597 38.7305H88.5357C89.9033 38.735 91.017 37.6306 91.017 36.2696ZM83.5317 18.9209C83.5317 19.7228 83.3146 20.6897 81.6604 20.6897H69.6841C66.6391 20.6897 64.1717 22.0689 64.1717 23.7737V20.6897C64.2412 18.6918 64.1717 17.033 65.9 15.4933C68.2055 13.4358 71.657 13.4954 73.8887 13.4954C76.2637 13.4954 78.9991 13.61 81.0875 14.8655C82.3073 15.6078 83.5317 17.033 83.5317 18.9209Z" fill="#EA0029"/>
<path d="M182.063 36.2696V33.5981H163.424C160.329 33.5981 156.803 33.2544 155.722 30.0009C155.436 29.0892 155.218 27.1463 155.218 25.831H177.388C178.898 25.831 180.34 25.6018 181.491 24.6854C183.076 23.4299 183.288 21.6611 183.288 20.1169C183.288 16.2906 182.35 12.5239 177.891 10.2969C174.366 8.52813 169.759 8.35399 165.296 8.35399C161.696 8.35399 155.218 8.35399 151.046 11.2088C146.869 14.0636 146.513 18.2289 146.513 23.8835C146.513 27.8793 146.731 32.0492 149.249 34.9041C152.414 38.4463 157.02 38.7305 160.911 38.7305H179.587C180.95 38.735 182.063 37.6306 182.063 36.2696ZM174.578 18.9209C174.578 19.7228 174.361 20.6897 172.707 20.6897H160.731C157.686 20.6897 155.218 22.0689 155.218 23.7737V20.6897C155.292 18.6918 155.218 17.033 156.946 15.4933C159.252 13.4358 162.704 13.4954 164.935 13.4954C167.31 13.4954 170.046 13.61 172.134 14.8655C173.354 15.6078 174.578 17.033 174.578 18.9209Z" fill="#EA0029"/>
<path d="M48.2266 0H44.7798C43.4074 0 42.2939 1.10435 42.2939 2.46531V3.14807V8.8256C42.2939 7.33175 43.9713 5.61338 46.5034 5.61338H48.2314C49.6036 5.61338 50.7171 4.50903 50.7171 3.14807V2.46531C50.7125 1.10435 49.5991 0 48.2266 0Z" fill="#EA0029"/>
<path d="M289.792 8.63176H244.425C243.233 8.63176 242.267 9.59788 242.267 10.7897V36.6844C242.267 37.8762 243.233 38.8423 244.425 38.8423H289.792C290.984 38.8423 291.95 37.8762 291.95 36.6844V10.7897C291.95 9.59788 290.984 8.63176 289.792 8.63176Z" fill="#EA0029"/>
<path d="M267.108 12.9476L269.29 20.403H276.353L270.639 25.0107L272.823 32.466L267.108 27.8583L261.394 32.466L263.576 25.0107L257.864 20.403H264.925L267.108 12.9476Z" fill="#FFE600"/>
<path d="M1.72838 73V58.5195H6.87137L9.3164 65.7703C9.40071 66.0232 9.49907 66.3394 9.61149 66.7188C9.7239 67.0842 9.83632 67.4636 9.94874 67.857C10.0752 68.2505 10.1736 68.5947 10.2438 68.8898H10.4124C10.4827 68.6369 10.567 68.3277 10.6654 67.9624C10.7637 67.597 10.8691 67.2176 10.9815 66.8242C11.108 66.4307 11.2204 66.0794 11.3188 65.7703L13.7427 58.5195H18.7803V73H15.4711V65.5595C15.4711 65.0818 15.4711 64.5899 15.4711 64.0841C15.4852 63.5642 15.4992 63.1004 15.5133 62.6929C15.5414 62.2714 15.5554 61.9763 15.5554 61.8077H15.3868C15.3306 61.9903 15.2463 62.2714 15.1339 62.6508C15.0355 63.0302 14.9231 63.4236 14.7966 63.8311C14.6842 64.2386 14.5788 64.5899 14.4805 64.885L11.6982 73H8.66299L5.85964 64.9061C5.76127 64.597 5.65588 64.2597 5.54347 63.8944C5.43105 63.515 5.32566 63.1426 5.2273 62.7773C5.12894 62.3979 5.04463 62.0747 4.97437 61.8077H4.80574C4.8198 62.1028 4.83385 62.4681 4.8479 62.9037C4.86195 63.3393 4.86898 63.789 4.86898 64.2527C4.88303 64.7164 4.89006 65.152 4.89006 65.5595V73H1.72838ZM25.37 73.2529C24.8781 73.2529 24.3934 73.2038 23.9156 73.1054C23.4378 73.0211 22.9952 72.8665 22.5877 72.6417C22.1942 72.4028 21.8781 72.0796 21.6392 71.6721C21.4144 71.2505 21.3019 70.7166 21.3019 70.0702C21.3019 69.2411 21.4987 68.5737 21.8921 68.0678C22.2996 67.5619 22.8687 67.1825 23.5994 66.9296C24.3301 66.6626 25.1943 66.487 26.192 66.4026C27.2037 66.3043 28.3068 66.2551 29.5012 66.2551V65.5806C29.5012 65.2153 29.4239 64.9061 29.2694 64.6532C29.1148 64.4002 28.8689 64.2105 28.5316 64.0841C28.1944 63.9436 27.7447 63.8733 27.1827 63.8733C26.6768 63.8733 26.2482 63.9225 25.8969 64.0208C25.5456 64.1192 25.2786 64.2527 25.096 64.4213C24.9133 64.5899 24.8219 64.7867 24.8219 65.0115V65.2644H21.7867C21.7727 65.1942 21.7657 65.1309 21.7657 65.0747C21.7657 65.0185 21.7657 64.9483 21.7657 64.864C21.7657 64.2176 21.9764 63.6555 22.398 63.1777C22.8336 62.6859 23.4589 62.3065 24.2739 62.0395C25.103 61.7725 26.1007 61.6391 27.267 61.6391C28.4052 61.6391 29.3677 61.7725 30.1546 62.0395C30.9556 62.2925 31.5598 62.6859 31.9673 63.2199C32.3748 63.7398 32.5786 64.4213 32.5786 65.2644V70.1545C32.5786 70.4074 32.6418 70.6042 32.7683 70.7447C32.9088 70.8711 33.0844 70.9344 33.2952 70.9344H34.1594V72.8946C34.0048 72.9508 33.7589 73.0211 33.4217 73.1054C33.0844 73.2038 32.698 73.2529 32.2624 73.2529C31.7565 73.2529 31.335 73.1827 30.9977 73.0422C30.6605 72.9157 30.3935 72.733 30.1968 72.4941C30.0001 72.2553 29.8595 71.9883 29.7752 71.6932H29.6277C29.3185 72.0023 28.9532 72.2763 28.5316 72.5152C28.1101 72.7541 27.6323 72.9368 27.0983 73.0632C26.5784 73.1897 26.0023 73.2529 25.37 73.2529ZM26.2974 70.9765C26.6908 70.9765 27.0773 70.9273 27.4567 70.829C27.8361 70.7306 28.1803 70.5831 28.4895 70.3863C28.7986 70.1896 29.0445 69.9507 29.2272 69.6697C29.4099 69.3746 29.5012 69.0514 29.5012 68.7001V68.1099C28.4333 68.1099 27.5129 68.1662 26.74 68.2786C25.9812 68.3769 25.3981 68.5526 24.9906 68.8055C24.5971 69.0444 24.4004 69.3887 24.4004 69.8383C24.4004 70.1053 24.4847 70.3231 24.6533 70.4917C24.8219 70.6604 25.0468 70.7868 25.3278 70.8711C25.6229 70.9414 25.9461 70.9765 26.2974 70.9765ZM35.622 73V61.892H38.1514L38.3621 63.5571H38.5308C38.854 63.1356 39.2263 62.7843 39.6479 62.5032C40.0694 62.2082 40.5261 61.9903 41.0179 61.8498C41.5238 61.7093 42.0508 61.6391 42.5988 61.6391C43.4559 61.6391 44.1866 61.7866 44.7909 62.0817C45.4092 62.3768 45.8799 62.8335 46.2031 63.4517C46.5263 64.056 46.6879 64.8499 46.6879 65.8335V73H43.6105V66.3183C43.6105 65.9249 43.5613 65.5947 43.463 65.3277C43.3646 65.0466 43.2171 64.8218 43.0203 64.6532C42.8377 64.4846 42.6058 64.3651 42.3248 64.2949C42.0578 64.2105 41.7557 64.1684 41.4184 64.1684C40.9126 64.1684 40.4559 64.2808 40.0484 64.5056C39.6409 64.7164 39.3106 65.0185 39.0577 65.412C38.8188 65.8054 38.6994 66.2621 38.6994 66.782V73H35.622ZM53.439 73.2529C52.1322 73.2529 51.1205 72.9227 50.4038 72.2623C49.6872 71.5878 49.3289 70.5269 49.3289 69.0795V61.892H52.4062V68.5737C52.4062 68.9671 52.4554 69.3044 52.5538 69.5854C52.6662 69.8524 52.8137 70.0772 52.9964 70.2599C53.1791 70.4285 53.4039 70.555 53.6709 70.6393C53.9519 70.7095 54.2611 70.7447 54.5983 70.7447C55.1042 70.7447 55.5609 70.6323 55.9684 70.4074C56.3899 70.1826 56.7202 69.8735 56.959 69.48C57.212 69.0865 57.3384 68.6369 57.3384 68.131V61.892H60.3947V73H57.8865L57.6757 71.3349H57.5071C57.1979 71.7564 56.8255 72.1147 56.3899 72.4098C55.9684 72.6909 55.5047 72.9016 54.9988 73.0422C54.507 73.1827 53.9871 73.2529 53.439 73.2529ZM63.9426 73V64.2316H62.0666V61.892H63.9426V60.8381C63.9426 60.1636 64.062 59.5804 64.3009 59.0886C64.5398 58.5968 64.9051 58.2174 65.3969 57.9504C65.9028 57.6694 66.5492 57.5289 67.3361 57.5289C67.575 57.5289 67.8279 57.55 68.0949 57.5921C68.3619 57.6202 68.6218 57.6624 68.8748 57.7186C69.1277 57.7607 69.3525 57.8169 69.5493 57.8872V59.8685H68.3478C67.8701 59.8685 67.5258 59.9528 67.315 60.1214C67.1183 60.2901 67.0199 60.5571 67.0199 60.9224V61.892H69.5493V64.2316H67.0199V73H63.9426ZM74.4006 73.2529C73.9088 73.2529 73.424 73.2038 72.9462 73.1054C72.4685 73.0211 72.0258 72.8665 71.6183 72.6417C71.2249 72.4028 70.9087 72.0796 70.6698 71.6721C70.445 71.2505 70.3326 70.7166 70.3326 70.0702C70.3326 69.2411 70.5293 68.5737 70.9228 68.0678C71.3303 67.5619 71.8994 67.1825 72.6301 66.9296C73.3608 66.6626 74.225 66.487 75.2226 66.4026C76.2344 66.3043 77.3375 66.2551 78.5319 66.2551V65.5806C78.5319 65.2153 78.4546 64.9061 78.3 64.6532C78.1454 64.4002 77.8995 64.2105 77.5623 64.0841C77.225 63.9436 76.7754 63.8733 76.2133 63.8733C75.7074 63.8733 75.2789 63.9225 74.9276 64.0208C74.5763 64.1192 74.3093 64.2527 74.1266 64.4213C73.9439 64.5899 73.8526 64.7867 73.8526 65.0115V65.2644H70.8174C70.8033 65.1942 70.7963 65.1309 70.7963 65.0747C70.7963 65.0185 70.7963 64.9483 70.7963 64.864C70.7963 64.2176 71.0071 63.6555 71.4286 63.1777C71.8642 62.6859 72.4896 62.3065 73.3046 62.0395C74.1336 61.7725 75.1313 61.6391 76.2976 61.6391C77.4358 61.6391 78.3984 61.7725 79.1853 62.0395C79.9862 62.2925 80.5905 62.6859 80.998 63.2199C81.4055 63.7398 81.6092 64.4213 81.6092 65.2644V70.1545C81.6092 70.4074 81.6725 70.6042 81.7989 70.7447C81.9394 70.8711 82.1151 70.9344 82.3259 70.9344H83.1901V72.8946C83.0355 72.9508 82.7896 73.0211 82.4523 73.1054C82.1151 73.2038 81.7287 73.2529 81.2931 73.2529C80.7872 73.2529 80.3656 73.1827 80.0284 73.0422C79.6911 72.9157 79.4242 72.733 79.2274 72.4941C79.0307 72.2553 78.8902 71.9883 78.8059 71.6932H78.6583C78.3492 72.0023 77.9838 72.2763 77.5623 72.5152C77.1407 72.7541 76.663 72.9368 76.129 73.0632C75.6091 73.1897 75.0329 73.2529 74.4006 73.2529ZM75.328 70.9765C75.7215 70.9765 76.1079 70.9273 76.4873 70.829C76.8667 70.7306 77.211 70.5831 77.5201 70.3863C77.8293 70.1896 78.0752 69.9507 78.2579 69.6697C78.4405 69.3746 78.5319 69.0514 78.5319 68.7001V68.1099C77.4639 68.1099 76.5435 68.1662 75.7707 68.2786C75.0119 68.3769 74.4287 68.5526 74.0212 68.8055C73.6278 69.0444 73.431 69.3887 73.431 69.8383C73.431 70.1053 73.5153 70.3231 73.684 70.4917C73.8526 70.6604 74.0774 70.7868 74.3585 70.8711C74.6535 70.9414 74.9767 70.9765 75.328 70.9765ZM90.1961 73.2529C88.9034 73.2529 87.8073 73.0422 86.908 72.6206C86.0087 72.199 85.3201 71.5597 84.8424 70.7025C84.3787 69.8313 84.1468 68.7423 84.1468 67.4355C84.1468 66.1286 84.3857 65.0466 84.8635 64.1895C85.3412 63.3323 86.0298 62.6929 86.9291 62.2714C87.8284 61.8498 88.9174 61.6391 90.1961 61.6391C91.0252 61.6391 91.784 61.7374 92.4725 61.9341C93.1611 62.1168 93.7583 62.3979 94.2642 62.7773C94.7841 63.1567 95.1775 63.6274 95.4445 64.1895C95.7256 64.7515 95.8661 65.412 95.8661 66.1708H92.7676C92.7676 65.693 92.6622 65.2925 92.4515 64.9693C92.2407 64.6321 91.9386 64.3792 91.5451 64.2105C91.1657 64.0419 90.709 63.9576 90.1751 63.9576C89.5427 63.9576 89.0088 64.0841 88.5731 64.337C88.1516 64.5899 87.8354 64.9553 87.6246 65.4331C87.4139 65.9108 87.3085 66.508 87.3085 67.2247V67.6884C87.3085 68.3769 87.4139 68.9671 87.6246 69.4589C87.8354 69.9507 88.1586 70.3231 88.5942 70.576C89.0439 70.8149 89.606 70.9344 90.2805 70.9344C90.8144 70.9344 91.2711 70.8501 91.6505 70.6814C92.044 70.4988 92.3531 70.2388 92.5779 69.9016C92.8028 69.5643 92.9152 69.1638 92.9152 68.7001H95.8661C95.8661 69.4449 95.7256 70.1053 95.4445 70.6814C95.1775 71.2435 94.7911 71.7213 94.2852 72.1147C93.7794 72.4941 93.1751 72.7822 92.4725 72.9789C91.784 73.1616 91.0252 73.2529 90.1961 73.2529ZM102.118 73.2529C101.359 73.2529 100.734 73.1335 100.242 72.8946C99.7646 72.6557 99.4133 72.3044 99.1885 71.8407C98.9636 71.363 98.8512 70.7868 98.8512 70.1123V64.2316H97.165V61.892H98.9566L99.5468 58.6882H101.929V61.892H104.353V64.2316H101.929V69.6486C101.929 70.0702 102.013 70.3934 102.182 70.6182C102.364 70.829 102.694 70.9344 103.172 70.9344H104.353V72.8946C104.184 72.9649 103.966 73.0211 103.699 73.0632C103.432 73.1194 103.158 73.1616 102.877 73.1897C102.596 73.2319 102.343 73.2529 102.118 73.2529ZM110.456 73.2529C109.149 73.2529 108.138 72.9227 107.421 72.2623C106.704 71.5878 106.346 70.5269 106.346 69.0795V61.892H109.423V68.5737C109.423 68.9671 109.473 69.3044 109.571 69.5854C109.683 69.8524 109.831 70.0772 110.014 70.2599C110.196 70.4285 110.421 70.555 110.688 70.6393C110.969 70.7095 111.278 70.7447 111.615 70.7447C112.121 70.7447 112.578 70.6323 112.986 70.4074C113.407 70.1826 113.737 69.8735 113.976 69.48C114.229 69.0865 114.356 68.6369 114.356 68.131V61.892H117.412V73H114.904L114.693 71.3349H114.524C114.215 71.7564 113.843 72.1147 113.407 72.4098C112.986 72.6909 112.522 72.9016 112.016 73.0422C111.524 73.1827 111.004 73.2529 110.456 73.2529ZM120.201 73V61.892H122.73L122.941 63.7047H123.11C123.264 63.3253 123.468 62.981 123.721 62.6719C123.988 62.3487 124.311 62.0957 124.69 61.9131C125.07 61.7304 125.506 61.6391 125.997 61.6391C126.236 61.6391 126.461 61.6601 126.672 61.7023C126.897 61.7444 127.079 61.7936 127.22 61.8498V64.5478H126.039C125.562 64.5478 125.147 64.6181 124.796 64.7586C124.459 64.8991 124.171 65.1099 123.932 65.3909C123.707 65.6579 123.538 65.9811 123.426 66.3605C123.327 66.7258 123.278 67.1333 123.278 67.583V73H120.201ZM128.846 60.2479V57.7397H131.923V60.2479H128.846ZM128.846 73V61.892H131.923V73H128.846ZM134.713 73V61.892H137.242L137.453 63.5571H137.621C137.944 63.1356 138.317 62.7843 138.738 62.5032C139.16 62.2082 139.617 61.9903 140.108 61.8498C140.614 61.7093 141.141 61.6391 141.689 61.6391C142.546 61.6391 143.277 61.7866 143.881 62.0817C144.5 62.3768 144.97 62.8335 145.294 63.4517C145.617 64.056 145.778 64.8499 145.778 65.8335V73H142.701V66.3183C142.701 65.9249 142.652 65.5947 142.553 65.3277C142.455 65.0466 142.308 64.8218 142.111 64.6532C141.928 64.4846 141.696 64.3651 141.415 64.2949C141.148 64.2105 140.846 64.1684 140.509 64.1684C140.003 64.1684 139.546 64.2808 139.139 64.5056C138.731 64.7164 138.401 65.0185 138.148 65.412C137.909 65.8054 137.79 66.2621 137.79 66.782V73H134.713ZM150.506 77.068C149.958 77.068 149.445 76.9697 148.967 76.7729C148.504 76.5762 148.131 76.2811 147.85 75.8877C147.569 75.4942 147.429 75.0094 147.429 74.4333C147.429 73.8431 147.611 73.3513 147.977 72.9578C148.342 72.5644 148.785 72.2693 149.305 72.0726C148.925 71.8758 148.63 71.6159 148.419 71.2927C148.223 70.9695 148.124 70.6042 148.124 70.1966C148.124 69.6346 148.321 69.1638 148.714 68.7844C149.122 68.405 149.621 68.1662 150.211 68.0678C149.677 67.7586 149.255 67.3652 148.946 66.8874C148.637 66.3956 148.483 65.8616 148.483 65.2855C148.483 64.4565 148.7 63.7749 149.136 63.241C149.586 62.707 150.225 62.3065 151.054 62.0395C151.883 61.7725 152.874 61.6391 154.026 61.6391C154.476 61.6391 154.897 61.6672 155.291 61.7234C155.684 61.7655 156.05 61.8288 156.387 61.9131C156.977 61.6039 157.399 61.2667 157.651 60.9013C157.904 60.536 158.045 60.2268 158.073 59.9739H160.94C160.926 60.4938 160.813 60.9505 160.602 61.344C160.406 61.7234 160.118 62.0395 159.738 62.2925C159.359 62.5313 158.902 62.707 158.368 62.8194C158.762 63.1286 159.064 63.4939 159.274 63.9155C159.485 64.323 159.591 64.7796 159.591 65.2855C159.591 66.0865 159.387 66.761 158.979 67.309C158.586 67.843 158.01 68.2505 157.251 68.5315C156.492 68.7985 155.586 68.932 154.532 68.932H152.361C151.996 68.932 151.715 69.0022 151.518 69.1428C151.335 69.2692 151.244 69.4449 151.244 69.6697C151.244 69.8805 151.328 70.0561 151.497 70.1966C151.679 70.3372 151.967 70.4074 152.361 70.4074H157.694C158.705 70.4074 159.492 70.7095 160.054 71.3138C160.616 71.904 160.897 72.6557 160.897 73.5691C160.897 74.2576 160.715 74.8619 160.349 75.3818C159.984 75.9158 159.492 76.3303 158.874 76.6254C158.256 76.9205 157.553 77.068 156.766 77.068H150.506ZM151.665 75.0445H156.513C156.766 75.0445 156.984 74.9954 157.167 74.897C157.363 74.8127 157.518 74.6862 157.63 74.5176C157.743 74.349 157.799 74.1523 157.799 73.9274C157.799 73.5761 157.68 73.3021 157.441 73.1054C157.216 72.9227 156.935 72.8314 156.598 72.8314H151.708C151.356 72.8314 151.061 72.9297 150.822 73.1265C150.597 73.3232 150.485 73.5902 150.485 73.9274C150.485 74.2647 150.597 74.5317 150.822 74.7284C151.047 74.9392 151.328 75.0445 151.665 75.0445ZM154.047 66.9717C154.834 66.9717 155.445 66.8382 155.881 66.5713C156.317 66.2902 156.534 65.8616 156.534 65.2855C156.534 64.7094 156.317 64.2878 155.881 64.0208C155.445 63.7398 154.834 63.5993 154.047 63.5993C153.26 63.5993 152.649 63.7398 152.213 64.0208C151.778 64.2878 151.56 64.7094 151.56 65.2855C151.56 65.6649 151.651 65.9811 151.834 66.234C152.031 66.487 152.312 66.6767 152.677 66.8031C153.056 66.9155 153.513 66.9717 154.047 66.9717ZM175.152 73.2529C173.452 73.2529 172.011 72.9789 170.831 72.4309C169.665 71.8829 168.779 71.0538 168.175 69.9437C167.585 68.8336 167.29 67.4355 167.29 65.7492C167.29 63.2761 167.964 61.4142 169.313 60.1636C170.676 58.8989 172.622 58.2666 175.152 58.2666C176.557 58.2666 177.801 58.4914 178.883 58.9411C179.979 59.3767 180.836 60.0301 181.454 60.9013C182.072 61.7585 182.381 62.8194 182.381 64.0841H179.072C179.072 63.4096 178.904 62.8475 178.566 62.3979C178.243 61.9341 177.787 61.5828 177.196 61.344C176.606 61.091 175.918 60.9646 175.131 60.9646C174.175 60.9646 173.367 61.1402 172.707 61.4915C172.046 61.8428 171.547 62.3557 171.21 63.0302C170.887 63.6906 170.725 64.4986 170.725 65.4541V66.0654C170.725 67.0209 170.887 67.8359 171.21 68.5104C171.547 69.1709 172.039 69.6767 172.686 70.028C173.346 70.3793 174.161 70.555 175.131 70.555C175.96 70.555 176.676 70.4426 177.281 70.2177C177.885 69.9788 178.349 69.6275 178.672 69.1638C179.009 68.7001 179.178 68.138 179.178 67.4776H182.403C182.403 68.7282 182.093 69.7821 181.475 70.6393C180.871 71.4964 180.021 72.1499 178.925 72.5995C177.843 73.0351 176.585 73.2529 175.152 73.2529ZM190.525 73.2529C189.218 73.2529 188.101 73.0422 187.174 72.6206C186.246 72.199 185.537 71.5597 185.045 70.7025C184.567 69.8313 184.328 68.7423 184.328 67.4355C184.328 66.1286 184.567 65.0466 185.045 64.1895C185.537 63.3323 186.246 62.6929 187.174 62.2714C188.101 61.8498 189.218 61.6391 190.525 61.6391C191.846 61.6391 192.963 61.8498 193.876 62.2714C194.804 62.6929 195.507 63.3323 195.984 64.1895C196.476 65.0466 196.722 66.1286 196.722 67.4355C196.722 68.7423 196.476 69.8313 195.984 70.7025C195.507 71.5597 194.804 72.199 193.876 72.6206C192.963 73.0422 191.846 73.2529 190.525 73.2529ZM190.525 70.9344C191.214 70.9344 191.783 70.8079 192.232 70.555C192.682 70.302 193.012 69.9367 193.223 69.4589C193.448 68.9671 193.56 68.3769 193.56 67.6884V67.2247C193.56 66.508 193.448 65.9108 193.223 65.4331C193.012 64.9553 192.682 64.597 192.232 64.3581C191.783 64.1052 191.214 63.9787 190.525 63.9787C189.837 63.9787 189.267 64.1052 188.818 64.3581C188.368 64.597 188.031 64.9553 187.806 65.4331C187.595 65.9108 187.49 66.508 187.49 67.2247V67.6884C187.49 68.3769 187.595 68.9671 187.806 69.4589C188.031 69.9367 188.368 70.302 188.818 70.555C189.267 70.8079 189.837 70.9344 190.525 70.9344ZM198.996 76.8572V61.892H201.504L201.757 63.4939H201.926C202.361 62.8475 202.902 62.3768 203.549 62.0817C204.195 61.7866 204.912 61.6391 205.699 61.6391C206.71 61.6391 207.588 61.8498 208.333 62.2714C209.078 62.6789 209.654 63.3112 210.062 64.1684C210.483 65.0256 210.694 66.1216 210.694 67.4565C210.694 68.7774 210.483 69.8664 210.062 70.7236C209.654 71.5808 209.085 72.2201 208.354 72.6417C207.624 73.0492 206.781 73.2529 205.825 73.2529C205.319 73.2529 204.834 73.1967 204.371 73.0843C203.921 72.9719 203.513 72.8033 203.148 72.5784C202.783 72.3396 202.474 72.0515 202.221 71.7143H202.073V76.8572H198.996ZM204.813 70.7658C205.446 70.7658 205.958 70.6463 206.352 70.4074C206.759 70.1685 207.062 69.8172 207.258 69.3535C207.455 68.8898 207.553 68.3277 207.553 67.6673V67.2458C207.553 66.5713 207.455 66.0022 207.258 65.5384C207.062 65.0747 206.759 64.7305 206.352 64.5056C205.944 64.2668 205.425 64.1473 204.792 64.1473C204.188 64.1473 203.682 64.2738 203.275 64.5267C202.867 64.7656 202.558 65.1239 202.347 65.6017C202.15 66.0794 202.052 66.6485 202.052 67.309V67.583C202.052 68.0748 202.108 68.5174 202.221 68.9109C202.333 69.3044 202.502 69.6416 202.727 69.9226C202.965 70.1896 203.253 70.4004 203.591 70.555C203.942 70.6955 204.35 70.7658 204.813 70.7658ZM218.643 73.2529C217.336 73.2529 216.219 73.0422 215.291 72.6206C214.364 72.199 213.654 71.5597 213.162 70.7025C212.685 69.8313 212.446 68.7423 212.446 67.4355C212.446 66.1286 212.685 65.0466 213.162 64.1895C213.654 63.3323 214.364 62.6929 215.291 62.2714C216.219 61.8498 217.336 61.6391 218.643 61.6391C219.963 61.6391 221.081 61.8498 221.994 62.2714C222.921 62.6929 223.624 63.3323 224.102 64.1895C224.594 65.0466 224.839 66.1286 224.839 67.4355C224.839 68.7423 224.594 69.8313 224.102 70.7025C223.624 71.5597 222.921 72.199 221.994 72.6206C221.081 73.0422 219.963 73.2529 218.643 73.2529ZM218.643 70.9344C219.331 70.9344 219.9 70.8079 220.35 70.555C220.8 70.302 221.13 69.9367 221.341 69.4589C221.565 68.9671 221.678 68.3769 221.678 67.6884V67.2247C221.678 66.508 221.565 65.9108 221.341 65.4331C221.13 64.9553 220.8 64.597 220.35 64.3581C219.9 64.1052 219.331 63.9787 218.643 63.9787C217.954 63.9787 217.385 64.1052 216.935 64.3581C216.486 64.597 216.148 64.9553 215.924 65.4331C215.713 65.9108 215.607 66.508 215.607 67.2247V67.6884C215.607 68.3769 215.713 68.9671 215.924 69.4589C216.148 69.9367 216.486 70.302 216.935 70.555C217.385 70.8079 217.954 70.9344 218.643 70.9344ZM227.113 73V61.892H229.643L229.853 63.7047H230.022C230.177 63.3253 230.38 62.981 230.633 62.6719C230.9 62.3487 231.223 62.0957 231.603 61.9131C231.982 61.7304 232.418 61.6391 232.91 61.6391C233.149 61.6391 233.373 61.6601 233.584 61.7023C233.809 61.7444 233.992 61.7936 234.132 61.8498V64.5478H232.952C232.474 64.5478 232.06 64.6181 231.708 64.7586C231.371 64.8991 231.083 65.1099 230.844 65.3909C230.619 65.6579 230.451 65.9811 230.338 66.3605C230.24 66.7258 230.191 67.1333 230.191 67.583V73H227.113ZM238.968 73.2529C238.476 73.2529 237.992 73.2038 237.514 73.1054C237.036 73.0211 236.593 72.8665 236.186 72.6417C235.792 72.4028 235.476 72.0796 235.237 71.6721C235.013 71.2505 234.9 70.7166 234.9 70.0702C234.9 69.2411 235.097 68.5737 235.49 68.0678C235.898 67.5619 236.467 67.1825 237.198 66.9296C237.928 66.6626 238.793 66.487 239.79 66.4026C240.802 66.3043 241.905 66.2551 243.099 66.2551V65.5806C243.099 65.2153 243.022 64.9061 242.868 64.6532C242.713 64.4002 242.467 64.2105 242.13 64.0841C241.793 63.9436 241.343 63.8733 240.781 63.8733C240.275 63.8733 239.846 63.9225 239.495 64.0208C239.144 64.1192 238.877 64.2527 238.694 64.4213C238.512 64.5899 238.42 64.7867 238.42 65.0115V65.2644H235.385C235.371 65.1942 235.364 65.1309 235.364 65.0747C235.364 65.0185 235.364 64.9483 235.364 64.864C235.364 64.2176 235.575 63.6555 235.996 63.1777C236.432 62.6859 237.057 62.3065 237.872 62.0395C238.701 61.7725 239.699 61.6391 240.865 61.6391C242.003 61.6391 242.966 61.7725 243.753 62.0395C244.554 62.2925 245.158 62.6859 245.566 63.2199C245.973 63.7398 246.177 64.4213 246.177 65.2644V70.1545C246.177 70.4074 246.24 70.6042 246.367 70.7447C246.507 70.8711 246.683 70.9344 246.893 70.9344H247.758V72.8946C247.603 72.9508 247.357 73.0211 247.02 73.1054C246.683 73.2038 246.296 73.2529 245.861 73.2529C245.355 73.2529 244.933 73.1827 244.596 73.0422C244.259 72.9157 243.992 72.733 243.795 72.4941C243.598 72.2553 243.458 71.9883 243.373 71.6932H243.226C242.917 72.0023 242.551 72.2763 242.13 72.5152C241.708 72.7541 241.231 72.9368 240.697 73.0632C240.177 73.1897 239.601 73.2529 238.968 73.2529ZM239.896 70.9765C240.289 70.9765 240.676 70.9273 241.055 70.829C241.434 70.7306 241.779 70.5831 242.088 70.3863C242.397 70.1896 242.643 69.9507 242.825 69.6697C243.008 69.3746 243.099 69.0514 243.099 68.7001V68.1099C242.032 68.1099 241.111 68.1662 240.338 68.2786C239.579 68.3769 238.996 68.5526 238.589 68.8055C238.195 69.0444 237.999 69.3887 237.999 69.8383C237.999 70.1053 238.083 70.3231 238.252 70.4917C238.42 70.6604 238.645 70.7868 238.926 70.8711C239.221 70.9414 239.544 70.9765 239.896 70.9765ZM253.183 73.2529C252.424 73.2529 251.799 73.1335 251.307 72.8946C250.829 72.6557 250.478 72.3044 250.253 71.8407C250.028 71.363 249.916 70.7868 249.916 70.1123V64.2316H248.23V61.892H250.021L250.611 58.6882H252.993V61.892H255.417V64.2316H252.993V69.6486C252.993 70.0702 253.078 70.3934 253.246 70.6182C253.429 70.829 253.759 70.9344 254.237 70.9344H255.417V72.8946C255.249 72.9649 255.031 73.0211 254.764 73.0632C254.497 73.1194 254.223 73.1616 253.942 73.1897C253.661 73.2319 253.408 73.2529 253.183 73.2529ZM257.495 60.2479V57.7397H260.572V60.2479H257.495ZM257.495 73V61.892H260.572V73H257.495ZM269.052 73.2529C267.746 73.2529 266.628 73.0422 265.701 72.6206C264.774 72.199 264.064 71.5597 263.572 70.7025C263.094 69.8313 262.855 68.7423 262.855 67.4355C262.855 66.1286 263.094 65.0466 263.572 64.1895C264.064 63.3323 264.774 62.6929 265.701 62.2714C266.628 61.8498 267.746 61.6391 269.052 61.6391C270.373 61.6391 271.49 61.8498 272.404 62.2714C273.331 62.6929 274.034 63.3323 274.512 64.1895C275.003 65.0466 275.249 66.1286 275.249 67.4355C275.249 68.7423 275.003 69.8313 274.512 70.7025C274.034 71.5597 273.331 72.199 272.404 72.6206C271.49 73.0422 270.373 73.2529 269.052 73.2529ZM269.052 70.9344C269.741 70.9344 270.31 70.8079 270.76 70.555C271.209 70.302 271.54 69.9367 271.75 69.4589C271.975 68.9671 272.088 68.3769 272.088 67.6884V67.2247C272.088 66.508 271.975 65.9108 271.75 65.4331C271.54 64.9553 271.209 64.597 270.76 64.3581C270.31 64.1052 269.741 63.9787 269.052 63.9787C268.364 63.9787 267.795 64.1052 267.345 64.3581C266.895 64.597 266.558 64.9553 266.333 65.4331C266.123 65.9108 266.017 66.508 266.017 67.2247V67.6884C266.017 68.3769 266.123 68.9671 266.333 69.4589C266.558 69.9367 266.895 70.302 267.345 70.555C267.795 70.8079 268.364 70.9344 269.052 70.9344ZM277.523 73V61.892H280.052L280.263 63.5571H280.432C280.755 63.1356 281.127 62.7843 281.549 62.5032C281.97 62.2082 282.427 61.9903 282.919 61.8498C283.425 61.7093 283.952 61.6391 284.5 61.6391C285.357 61.6391 286.088 61.7866 286.692 62.0817C287.31 62.3768 287.781 62.8335 288.104 63.4517C288.427 64.056 288.589 64.8499 288.589 65.8335V73H285.512V66.3183C285.512 65.9249 285.462 65.5947 285.364 65.3277C285.266 65.0466 285.118 64.8218 284.921 64.6532C284.739 64.4846 284.507 64.3651 284.226 64.2949C283.959 64.2105 283.657 64.1684 283.319 64.1684C282.814 64.1684 282.357 64.2808 281.949 64.5056C281.542 64.7164 281.212 65.0185 280.959 65.412C280.72 65.8054 280.6 66.2621 280.6 66.782V73H277.523Z" fill="#171717"/>
</g>
<defs>
<clipPath id="clip0_28_124">
<rect width="293.474" height="82" fill="white"/>
</clipPath>
</defs>
</svg>
